{
    "asset": {
        "generator": "Khronos glTF Blender I/O v5.1.18",
        "version": "2.0"
    },
    "scene": 0,
    "scenes": [
        {
            "name": "Scene",
            "nodes": [
                0
            ]
        }
    ],
    "nodes": [
        {
            "mesh": 0,
            "name": "bush02",
            "rotation": [
                0.7071066498756409,
                0,
                0,
                0.70710688829422
            ],
            "scale": [
                0.0019355469848960638,
                0.0019355469848960638,
                0.0019355469848960638
            ]
        }
    ],
    "materials": [
        {
            "alphaMode": "BLEND",
            "doubleSided": true,
            "name": "bush02",
            "pbrMetallicRoughness": {
                "baseColorTexture": {
                    "index": 0
                },
                "metallicFactor": 0
            }
        }
    ],
    "meshes": [
        {
            "name": "bush02",
            "primitives": [
                {
                    "attributes": {
                        "POSITION": 0,
                        "NORMAL": 1,
                        "TEXCOORD_0": 2
                    },
                    "indices": 3,
                    "material": 0
                }
            ]
        }
    ],
    "textures": [
        {
            "sampler": 0,
            "source": 0
        }
    ],
    "images": [
        {
            "mimeType": "image/png",
            "name": "bush02",
            "uri": "../textures/bush02.png"
        }
    ],
    "accessors": [
        {
            "bufferView": 0,
            "componentType": 5126,
            "count": 32,
            "max": [
                600,
                600.0000610351562,
                375.0000305175781
            ],
            "min": [
                -600,
                -600,
                -375
            ],
            "type": "VEC3"
        },
        {
            "bufferView": 1,
            "componentType": 5126,
            "count": 32,
            "type": "VEC3"
        },
        {
            "bufferView": 2,
            "componentType": 5126,
            "count": 32,
            "type": "VEC2"
        },
        {
            "bufferView": 3,
            "componentType": 5123,
            "count": 48,
            "type": "SCALAR"
        }
    ],
    "bufferViews": [
        {
            "buffer": 0,
            "byteLength": 384,
            "byteOffset": 0,
            "target": 34962
        },
        {
            "buffer": 0,
            "byteLength": 384,
            "byteOffset": 384,
            "target": 34962
        },
        {
            "buffer": 0,
            "byteLength": 256,
            "byteOffset": 768,
            "target": 34962
        },
        {
            "buffer": 0,
            "byteLength": 96,
            "byteOffset": 1024,
            "target": 34963
        }
    ],
    "samplers": [
        {
            "magFilter": 9728,
            "minFilter": 9984
        }
    ],
    "buffers": [
        {
            "byteLength": 1120,
            "uri": "bush02.bin"
        }
    ]
}