{
    "asset": {
        "generator": "Khronos glTF Blender I/O v5.1.18",
        "version": "2.0"
    },
    "scene": 0,
    "scenes": [
        {
            "name": "Scene",
            "nodes": [
                0,
                1,
                2
            ]
        }
    ],
    "nodes": [
        {
            "mesh": 0,
            "name": "log",
            "rotation": [
                -0.005532534327358007,
                0.707085132598877,
                0.005532534327358007,
                0.707085132598877
            ],
            "scale": [
                1.3900166749954224,
                0.8505876660346985,
                1.3900166749954224
            ],
            "translation": [
                30.16581153869629,
                10.161154747009277,
                -8.42455768585205
            ]
        },
        {
            "mesh": 0,
            "name": "log1",
            "rotation": [
                -0.008797291666269302,
                0,
                0,
                0.9999613165855408
            ],
            "scale": [
                1.3900166749954224,
                0.8505876660346985,
                1.3900166749954224
            ],
            "translation": [
                30.16581153869629,
                10.161153793334961,
                -20.825298309326172
            ]
        },
        {
            "mesh": 1,
            "name": "logtop",
            "rotation": [
                0.7171515226364136,
                -0.0023693775292485952,
                0.002079570898786187,
                0.6969102025032043
            ],
            "scale": [
                1.390016794204712,
                0.7120028734207153,
                1.3900166749954224
            ],
            "translation": [
                29.662155151367188,
                21.594932556152344,
                -14.487549781799316
            ]
        }
    ],
    "materials": [
        {
            "doubleSided": true,
            "name": "logs2",
            "pbrMetallicRoughness": {
                "baseColorTexture": {
                    "index": 0
                },
                "metallicFactor": 0
            }
        }
    ],
    "meshes": [
        {
            "name": "Cylinder.005",
            "primitives": [
                {
                    "attributes": {
                        "POSITION": 0,
                        "NORMAL": 1,
                        "TEXCOORD_0": 2
                    },
                    "indices": 3,
                    "material": 0
                }
            ]
        },
        {
            "name": "Cylinder.008",
            "primitives": [
                {
                    "attributes": {
                        "POSITION": 4,
                        "NORMAL": 5,
                        "TEXCOORD_0": 6
                    },
                    "indices": 3,
                    "material": 0
                }
            ]
        }
    ],
    "textures": [
        {
            "sampler": 0,
            "source": 0
        }
    ],
    "images": [
        {
            "mimeType": "image/png",
            "name": "logs2",
            "uri": "../textures/logs2.png"
        }
    ],
    "accessors": [
        {
            "bufferView": 0,
            "componentType": 5126,
            "count": 48,
            "max": [
                1,
                12.946040153503418,
                1
            ],
            "min": [
                -1,
                -12.946040153503418,
                -1
            ],
            "type": "VEC3"
        },
        {
            "bufferView": 1,
            "componentType": 5126,
            "count": 48,
            "type": "VEC3"
        },
        {
            "bufferView": 2,
            "componentType": 5126,
            "count": 48,
            "type": "VEC2"
        },
        {
            "bufferView": 3,
            "componentType": 5123,
            "count": 84,
            "type": "SCALAR"
        },
        {
            "bufferView": 4,
            "componentType": 5126,
            "count": 48,
            "max": [
                1,
                12.946040153503418,
                1
            ],
            "min": [
                -1,
                -12.946040153503418,
                -1
            ],
            "type": "VEC3"
        },
        {
            "bufferView": 5,
            "componentType": 5126,
            "count": 48,
            "type": "VEC3"
        },
        {
            "bufferView": 6,
            "componentType": 5126,
            "count": 48,
            "type": "VEC2"
        }
    ],
    "bufferViews": [
        {
            "buffer": 0,
            "byteLength": 576,
            "byteOffset": 0,
            "target": 34962
        },
        {
            "buffer": 0,
            "byteLength": 576,
            "byteOffset": 576,
            "target": 34962
        },
        {
            "buffer": 0,
            "byteLength": 384,
            "byteOffset": 1152,
            "target": 34962
        },
        {
            "buffer": 0,
            "byteLength": 168,
            "byteOffset": 1536,
            "target": 34963
        },
        {
            "buffer": 0,
            "byteLength": 576,
            "byteOffset": 1704,
            "target": 34962
        },
        {
            "buffer": 0,
            "byteLength": 576,
            "byteOffset": 2280,
            "target": 34962
        },
        {
            "buffer": 0,
            "byteLength": 384,
            "byteOffset": 2856,
            "target": 34962
        }
    ],
    "samplers": [
        {
            "magFilter": 9728,
            "minFilter": 9984
        }
    ],
    "buffers": [
        {
            "byteLength": 3240,
            "uri": "doorFrame.bin"
        }
    ]
}