{
    "asset": {
        "generator": "Khronos glTF Blender I/O v5.1.18",
        "version": "2.0"
    },
    "scene": 0,
    "scenes": [
        {
            "name": "Scene",
            "nodes": [
                0
            ]
        }
    ],
    "nodes": [
        {
            "mesh": 0,
            "name": "furnaceLog",
            "rotation": [
                0.5085731744766235,
                0.4911145269870758,
                -0.505632221698761,
                0.49446529150009155
            ],
            "scale": [
                1.3900138139724731,
                0.5404061675071716,
                1.3899601697921753
            ]
        }
    ],
    "materials": [
        {
            "doubleSided": true,
            "name": "logs2.001"
        }
    ],
    "meshes": [
        {
            "name": "Cylinder.032",
            "primitives": [
                {
                    "attributes": {
                        "POSITION": 0,
                        "NORMAL": 1,
                        "TEXCOORD_0": 2
                    },
                    "indices": 3,
                    "material": 0
                }
            ]
        }
    ],
    "accessors": [
        {
            "bufferView": 0,
            "componentType": 5126,
            "count": 48,
            "max": [
                1,
                12.946040153503418,
                1
            ],
            "min": [
                -1,
                -12.946040153503418,
                -1
            ],
            "type": "VEC3"
        },
        {
            "bufferView": 1,
            "componentType": 5126,
            "count": 48,
            "type": "VEC3"
        },
        {
            "bufferView": 2,
            "componentType": 5126,
            "count": 48,
            "type": "VEC2"
        },
        {
            "bufferView": 3,
            "componentType": 5123,
            "count": 84,
            "type": "SCALAR"
        }
    ],
    "bufferViews": [
        {
            "buffer": 0,
            "byteLength": 576,
            "byteOffset": 0,
            "target": 34962
        },
        {
            "buffer": 0,
            "byteLength": 576,
            "byteOffset": 576,
            "target": 34962
        },
        {
            "buffer": 0,
            "byteLength": 384,
            "byteOffset": 1152,
            "target": 34962
        },
        {
            "buffer": 0,
            "byteLength": 168,
            "byteOffset": 1536,
            "target": 34963
        }
    ],
    "buffers": [
        {
            "byteLength": 1704,
            "uri": "furnaceLog.bin"
        }
    ]
}