{
    "asset": {
        "generator": "Khronos glTF Blender I/O v5.1.18",
        "version": "2.0"
    },
    "extensionsUsed": [
        "KHR_materials_clearcoat",
        "KHR_materials_specular"
    ],
    "scene": 0,
    "scenes": [
        {
            "name": "Scene",
            "nodes": [
                0
            ]
        }
    ],
    "nodes": [
        {
            "mesh": 0,
            "name": "ground",
            "rotation": [
                0.7071068286895752,
                0,
                0,
                0.7071068286895752
            ],
            "scale": [
                651.6092529296875,
                651.6092529296875,
                651.6092529296875
            ]
        }
    ],
    "materials": [
        {
            "doubleSided": true,
            "extensions": {
                "KHR_materials_clearcoat": {
                    "clearcoatRoughnessFactor": 0
                },
                "KHR_materials_specular": {
                    "specularColorFactor": [
                        0.0,
                        0.0,
                        0.0
                    ]
                }
            },
            "name": "ground1.001",
            "normalTexture": {
                "index": 0
            },
            "pbrMetallicRoughness": {
                "baseColorTexture": {
                    "index": 1
                },
                "metallicFactor": 0,
                "metallicRoughnessTexture": {
                    "index": 2
                }
            }
        }
    ],
    "meshes": [
        {
            "name": "Mesh.002",
            "primitives": [
                {
                    "attributes": {
                        "POSITION": 0,
                        "NORMAL": 1,
                        "TEXCOORD_0": 2
                    },
                    "indices": 3,
                    "material": 0
                }
            ]
        }
    ],
    "textures": [
        {
            "sampler": 0,
            "source": 0
        },
        {
            "sampler": 0,
            "source": 1
        },
        {
            "sampler": 0,
            "source": 2
        }
    ],
    "images": [
        {
            "mimeType": "image/png",
            "name": "aerial_rocks_04_nor_4k",
            "uri": "../textures/aerial_rocks_04_nor_4k.png"
        },
        {
            "mimeType": "image/png",
            "name": "aerial_rocks_04_diff_4k",
            "uri": "../textures/aerial_rocks_04_diff_4k.png"
        },
        {
            "mimeType": "image/png",
            "name": "aerial_rocks_04_rough_4k",
            "uri": "../textures/aerial_rocks_04_rough_4k.png"
        }
    ],
    "accessors": [
        {
            "bufferView": 0,
            "componentType": 5126,
            "count": 25921,
            "max": [
                0.5,
                0.5000001192092896,
                0.09498006850481033
            ],
            "min": [
                -0.5,
                -0.49999988079071045,
                -0.08990786224603653
            ],
            "type": "VEC3"
        },
        {
            "bufferView": 1,
            "componentType": 5126,
            "count": 25921,
            "type": "VEC3"
        },
        {
            "bufferView": 2,
            "componentType": 5126,
            "count": 25921,
            "type": "VEC2"
        },
        {
            "bufferView": 3,
            "componentType": 5123,
            "count": 153600,
            "type": "SCALAR"
        }
    ],
    "bufferViews": [
        {
            "buffer": 0,
            "byteLength": 311052,
            "byteOffset": 0,
            "target": 34962
        },
        {
            "buffer": 0,
            "byteLength": 311052,
            "byteOffset": 311052,
            "target": 34962
        },
        {
            "buffer": 0,
            "byteLength": 207368,
            "byteOffset": 622104,
            "target": 34962
        },
        {
            "buffer": 0,
            "byteLength": 307200,
            "byteOffset": 829472,
            "target": 34963
        }
    ],
    "samplers": [
        {
            "magFilter": 9728,
            "minFilter": 9984
        }
    ],
    "buffers": [
        {
            "byteLength": 1136672,
            "uri": "ground.bin"
        }
    ]
}