{
    "asset": {
        "generator": "Khronos glTF Blender I/O v5.1.18",
        "version": "2.0"
    },
    "scene": 0,
    "scenes": [
        {
            "name": "Scene",
            "nodes": [
                0
            ]
        }
    ],
    "nodes": [
        {
            "mesh": 0,
            "name": "lamp",
            "scale": [
                0.11526171118021011,
                0.11526171118021011,
                0.11526171118021011
            ]
        }
    ],
    "materials": [
        {
            "doubleSided": true,
            "emissiveFactor": [
                0.9999999403953552,
                0.9999999403953552,
                0.9999999403953552
            ],
            "emissiveTexture": {
                "index": 0
            },
            "name": "lamp",
            "pbrMetallicRoughness": {
                "baseColorTexture": {
                    "index": 1
                },
                "metallicFactor": 0,
                "roughnessFactor": 0.5
            }
        }
    ],
    "meshes": [
        {
            "name": "Cylinder.028",
            "primitives": [
                {
                    "attributes": {
                        "POSITION": 0,
                        "NORMAL": 1,
                        "TEXCOORD_0": 2
                    },
                    "indices": 3,
                    "material": 0
                }
            ]
        }
    ],
    "textures": [
        {
            "sampler": 0,
            "source": 0
        },
        {
            "sampler": 0,
            "source": 1
        }
    ],
    "images": [
        {
            "mimeType": "image/png",
            "name": "lampMASK",
            "uri": "../textures/lampMASK.png"
        },
        {
            "mimeType": "image/png",
            "name": "lamp",
            "uri": "../textures/lamp.png"
        }
    ],
    "accessors": [
        {
            "bufferView": 0,
            "componentType": 5126,
            "count": 1492,
            "max": [
                1.0688780546188354,
                1.3863861560821533,
                1.349111795425415
            ],
            "min": [
                -1.0688780546188354,
                -1.9862087965011597,
                -1.3290538787841797
            ],
            "type": "VEC3"
        },
        {
            "bufferView": 1,
            "componentType": 5126,
            "count": 1492,
            "type": "VEC3"
        },
        {
            "bufferView": 2,
            "componentType": 5126,
            "count": 1492,
            "type": "VEC2"
        },
        {
            "bufferView": 3,
            "componentType": 5123,
            "count": 2700,
            "type": "SCALAR"
        }
    ],
    "bufferViews": [
        {
            "buffer": 0,
            "byteLength": 17904,
            "byteOffset": 0,
            "target": 34962
        },
        {
            "buffer": 0,
            "byteLength": 17904,
            "byteOffset": 17904,
            "target": 34962
        },
        {
            "buffer": 0,
            "byteLength": 11936,
            "byteOffset": 35808,
            "target": 34962
        },
        {
            "buffer": 0,
            "byteLength": 5400,
            "byteOffset": 47744,
            "target": 34963
        }
    ],
    "samplers": [
        {
            "magFilter": 9728,
            "minFilter": 9984
        }
    ],
    "buffers": [
        {
            "byteLength": 53144,
            "uri": "lamp.bin"
        }
    ]
}