{
    "asset": {
        "generator": "Khronos glTF Blender I/O v5.1.18",
        "version": "2.0"
    },
    "scene": 0,
    "scenes": [
        {
            "name": "Scene",
            "nodes": [
                0
            ]
        }
    ],
    "nodes": [
        {
            "mesh": 0,
            "name": "table",
            "scale": [
                5.236021995544434,
                0.8957408666610718,
                5.236021995544434
            ]
        }
    ],
    "materials": [
        {
            "doubleSided": true,
            "name": "table",
            "pbrMetallicRoughness": {
                "baseColorTexture": {
                    "index": 0
                },
                "metallicFactor": 0.41363635659217834,
                "roughnessFactor": 0.7772727012634277
            }
        }
    ],
    "meshes": [
        {
            "name": "Cube.003",
            "primitives": [
                {
                    "attributes": {
                        "POSITION": 0,
                        "NORMAL": 1,
                        "TEXCOORD_0": 2
                    },
                    "indices": 3,
                    "material": 0
                }
            ]
        }
    ],
    "textures": [
        {
            "sampler": 0,
            "source": 0
        }
    ],
    "images": [
        {
            "mimeType": "image/png",
            "name": "door",
            "uri": "../textures/door.png"
        }
    ],
    "accessors": [
        {
            "bufferView": 0,
            "componentType": 5126,
            "count": 2324,
            "max": [
                1.0594830513000488,
                3.358372449874878,
                1.0713796615600586
            ],
            "min": [
                -1.0594828128814697,
                -6.586130619049072,
                -1.0713794231414795
            ],
            "type": "VEC3"
        },
        {
            "bufferView": 1,
            "componentType": 5126,
            "count": 2324,
            "type": "VEC3"
        },
        {
            "bufferView": 2,
            "componentType": 5126,
            "count": 2324,
            "type": "VEC2"
        },
        {
            "bufferView": 3,
            "componentType": 5123,
            "count": 5724,
            "type": "SCALAR"
        }
    ],
    "bufferViews": [
        {
            "buffer": 0,
            "byteLength": 27888,
            "byteOffset": 0,
            "target": 34962
        },
        {
            "buffer": 0,
            "byteLength": 27888,
            "byteOffset": 27888,
            "target": 34962
        },
        {
            "buffer": 0,
            "byteLength": 18592,
            "byteOffset": 55776,
            "target": 34962
        },
        {
            "buffer": 0,
            "byteLength": 11448,
            "byteOffset": 74368,
            "target": 34963
        }
    ],
    "samplers": [
        {
            "magFilter": 9728,
            "minFilter": 9984
        }
    ],
    "buffers": [
        {
            "byteLength": 85816,
            "uri": "table.bin"
        }
    ]
}