{
    "asset": {
        "generator": "Khronos glTF Blender I/O v5.1.18",
        "version": "2.0"
    },
    "scene": 0,
    "scenes": [
        {
            "name": "Scene",
            "nodes": [
                0
            ]
        }
    ],
    "nodes": [
        {
            "mesh": 0,
            "name": "wall.002",
            "rotation": [
                0,
                0,
                -0.7071068286895752,
                0.7071068286895752
            ],
            "scale": [
                0.11526171118021011,
                0.11526171118021011,
                0.1265094131231308
            ]
        }
    ],
    "materials": [
        {
            "doubleSided": true,
            "name": "logs1.002",
            "pbrMetallicRoughness": {
                "baseColorTexture": {
                    "index": 0
                },
                "metallicFactor": 0
            }
        }
    ],
    "meshes": [
        {
            "name": "Cylinder.034",
            "primitives": [
                {
                    "attributes": {
                        "POSITION": 0,
                        "NORMAL": 1,
                        "TEXCOORD_0": 2
                    },
                    "indices": 3,
                    "material": 0
                }
            ]
        }
    ],
    "textures": [
        {
            "sampler": 0,
            "source": 0
        }
    ],
    "images": [
        {
            "mimeType": "image/png",
            "name": "logs",
            "uri": "../textures/logs.png"
        }
    ],
    "accessors": [
        {
            "bufferView": 0,
            "componentType": 5126,
            "count": 780,
            "max": [
                1.3211300373077393,
                13.046271324157715,
                27.386920928955078
            ],
            "min": [
                -1.1967874765396118,
                -12.98394775390625,
                -27.387500762939453
            ],
            "type": "VEC3"
        },
        {
            "bufferView": 1,
            "componentType": 5126,
            "count": 780,
            "type": "VEC3"
        },
        {
            "bufferView": 2,
            "componentType": 5126,
            "count": 780,
            "type": "VEC2"
        },
        {
            "bufferView": 3,
            "componentType": 5123,
            "count": 1404,
            "type": "SCALAR"
        }
    ],
    "bufferViews": [
        {
            "buffer": 0,
            "byteLength": 9360,
            "byteOffset": 0,
            "target": 34962
        },
        {
            "buffer": 0,
            "byteLength": 9360,
            "byteOffset": 9360,
            "target": 34962
        },
        {
            "buffer": 0,
            "byteLength": 6240,
            "byteOffset": 18720,
            "target": 34962
        },
        {
            "buffer": 0,
            "byteLength": 2808,
            "byteOffset": 24960,
            "target": 34963
        }
    ],
    "samplers": [
        {
            "magFilter": 9728,
            "minFilter": 9984
        }
    ],
    "buffers": [
        {
            "byteLength": 27768,
            "uri": "wall_002.bin"
        }
    ]
}